<?xml version="1.0" encoding="utf-8"?>
<!DOCTYPE svg PUBLIC "-//W3C//DTD SVG 1.0//EN" "http://www.w3.org/TR/2001/REC-SVG-20010904/DTD/svg10.dtd">
<svg version="1.0" xmlns="http://www.w3.org/2000/svg" width="921px" height="871px" viewBox="0 0 921 871" preserveAspectRatio="xMidYMid meet">
 <g fill="#ea3b7a">
  <path d="M316.1 790 c-16.8 -2.6 -35.3 -12.4 -38.7 -20.5 -2.3 -5.5 2.2 -12.6 12.1 -18.9 6.6 -4.3 13 -6.6 33.3 -12.2 17.5 -4.8 28.8 -9.8 38.2 -17 10.7 -8.1 18.9 -21.2 22.1 -35.2 2 -8.4 2.1 -10.2 1.1 -17.4 -1.3 -8.9 -6.4 -20.9 -12.5 -29.5 -3.5 -4.8 -16.8 -15.7 -26 -21.2 -3.2 -2 -3.8 -2.1 -4.3 -0.7 -0.3 0.9 -1.1 1.6 -1.6 1.6 -1.4 0 -9.8 -9.2 -9.8 -10.7 0 -0.6 -0.8 -1.9 -1.7 -2.9 -1.5 -1.4 -1.8 -3.5 -1.8 -11.4 l0 -9.6 6 -6.1 c6.9 -7 10.2 -8.3 21.3 -8.3 19.1 0 39.1 10 58.2 29 9.3 9.2 14 14.5 14 15.5 0 0.7 4.2 6.7 5.1 7.5 0.4 0.3 0.9 1.5 1.3 2.8 0.4 1.2 1.2 2.2 1.7 2.2 0.5 0 0.9 0.9 0.9 1.9 0 1.1 0.5 2.3 1 2.6 0.6 0.3 1 1.5 1 2.6 0 1 0.4 1.9 0.8 1.9 1.6 0 5.4 14.4 6.4 24.3 1.5 14.7 0.5 34.4 -2.1 44.2 -2.3 8.5 -11 27.4 -14.2 30.8 -1 1.1 -1.9 2.4 -1.9 2.9 0 0.4 -0.8 1.6 -1.7 2.7 -1 1 -2.9 3.3 -4.3 5.2 -1.4 1.8 -3.4 4 -4.4 4.9 -2.3 1.8 -6.2 5.5 -9.3 9 -3.3 3.6 -5.9 6 -6.6 6 -0.4 0 -1.6 0.9 -2.7 2 -1.1 1.1 -2.7 2 -3.5 2 -0.8 0 -1.5 0.5 -1.5 1 0 0.6 -0.7 1 -1.5 1 -0.8 0 -1.5 0.5 -1.5 1 0 0.6 -0.9 1 -2 1 -1.1 0 -2.3 0.6 -2.6 1.4 -0.3 0.8 -2 1.7 -3.8 2 -1.9 0.4 -4.6 1.8 -6 3.1 -1.5 1.4 -3.9 2.7 -5.4 3 -6.9 1.3 -11.7 2.7 -12.2 3.4 -1.8 2.7 -29.8 4.9 -40.9 3.1z"/>
  <path d="M605.5 765.3 c-7.7 -0.7 -24.1 -4.5 -29.3 -6.9 -2.9 -1.3 -5.6 -2.4 -6.1 -2.4 -0.4 0 -4.1 -1.8 -8.2 -4.1 -16.7 -9.1 -31.8 -23.5 -40.1 -38.1 -2.6 -4.6 -5.1 -8.8 -5.6 -9.3 -0.5 -0.6 -1.2 -2.8 -1.6 -4.8 -0.4 -2 -1.1 -3.7 -1.6 -3.7 -0.6 0 -1 -0.9 -1 -1.9 0 -1.1 -0.4 -2.2 -0.9 -2.5 -1.8 -1.2 -3.4 -15.5 -3.5 -32.4 -0.1 -9.6 0.2 -17.6 0.6 -17.8 0.3 -0.2 1 -3 1.3 -6.2 0.7 -6.1 2.3 -12.4 3.5 -13.2 0.9 -0.7 9 -17.6 9 -18.8 0 -0.6 0.7 -1.2 1.5 -1.6 0.8 -0.3 1.5 -1.2 1.5 -2 0 -0.8 1.6 -3 3.5 -4.9 1.9 -1.9 3.5 -4.2 3.5 -4.9 0 -1.5 8.4 -9.8 9.9 -9.8 0.4 0 2.3 -1.5 4.2 -3.2 5.2 -4.8 7.8 -6.8 8.7 -6.8 0.5 0 1.7 -0.8 2.8 -1.7 2.9 -2.7 9.1 -5.3 12.4 -5.3 3.9 0 4.4 2.2 3.2 14.2 -0.6 5.9 -0.5 13.8 0.1 21.2 0.9 11.2 0.6 14.6 -1.3 11.7 -1.4 -2.4 -3.3 -0.6 -8.5 7.9 -6.7 11.3 -9.5 20.1 -10.2 32.5 -1 18.5 4.8 33.8 18.1 47.1 11.5 11.5 21.6 15.6 52.6 21.4 20.4 3.8 25.9 6.1 34.2 14.5 5.2 5.4 5.5 6 4.5 8.4 -2.4 5.5 -7.8 13 -9.7 13.6 -1.1 0.3 -2 1 -2 1.4 0 0.5 -3 1.9 -6.7 3.1 -3.8 1.2 -7.1 2.7 -7.4 3.2 -0.3 0.5 -5.2 1.3 -11 1.8 -10.4 0.9 -12.9 1 -20.4 0.3z"/>
  <path d="M716.3 706.9 c-7.9 -0.7 -23.8 -4.4 -25.8 -6 -0.5 -0.4 -2.7 -1 -4.8 -1.4 -2 -0.4 -4 -1.1 -4.3 -1.6 -0.3 -0.5 -1.1 -0.9 -1.9 -0.9 -0.7 0 -6.6 -2.9 -13 -6.5 -19.3 -10.8 -30.1 -19.4 -41.7 -33.4 -4.3 -5.2 -7.8 -10 -7.8 -10.7 0 -0.7 -0.6 -1.9 -1.3 -2.6 -1.7 -1.8 -6.7 -12.1 -6.7 -14 0 -0.8 -0.7 -2.3 -1.5 -3.4 -0.8 -1 -1.5 -3.3 -1.5 -4.9 0 -1.7 -0.4 -3.5 -0.9 -4 -1.3 -1.4 -3.1 -15.1 -3.1 -23.5 0 -8.5 1.9 -22.3 3.1 -23.1 0.5 -0.3 1.4 -3.2 1.9 -6.4 0.5 -3.2 1.3 -6.1 1.8 -6.4 1.5 -1 3.2 -4.8 3.2 -7 0 -1.2 0.4 -2.1 0.9 -2.1 1.2 0 7.1 -9.6 7.1 -11.5 0 -0.8 0.5 -1.5 1 -1.5 0.6 0 1 -0.7 1 -1.5 0 -0.8 0.6 -1.5 1.3 -1.5 0.7 0 2.1 -1.6 3.1 -3.5 1.6 -2.9 2.5 -3.5 5.1 -3.5 1.8 0 3.9 0.7 4.6 1.6 0.7 0.9 5.3 4.7 10.1 8.6 8.9 7.1 10.3 9.2 7 10 -1.3 0.4 -2.3 2.6 -3.6 7.9 -5.3 21.8 -2 42.7 9.6 60 14.2 21.2 34 33.1 63.3 38 10.2 1.6 14.6 1.8 29.5 1.3 24.1 -0.9 31.6 1.2 42.6 11.8 3.7 3.6 4.1 4.3 3.4 7.1 -1.3 5.5 -4.2 12.1 -6 13.8 -1 0.8 -2.1 2.5 -2.4 3.7 -0.4 1.2 -1.1 2.2 -1.5 2.2 -0.5 0 -2 1.1 -3.5 2.5 -1.5 1.4 -3.3 2.5 -4.1 2.5 -0.7 0 -1.5 0.5 -1.7 1.1 -0.2 0.5 -2.3 1.4 -4.7 2 -2.3 0.5 -4.9 1.6 -5.6 2.3 -0.8 0.7 -6 2.3 -11.7 3.4 -10.9 2.2 -25 2.6 -40.5 1.1z"/>
  <path d="M171 696.4 c-10.8 -1.4 -23.2 -4.8 -29.9 -8.2 -8.8 -4.3 -18.2 -13 -20.2 -18.4 -0.7 -2.1 -1.6 -3.8 -2 -3.8 -0.4 0 -1 -1.6 -1.3 -3.5 -0.6 -3 -0.3 -3.8 3.1 -7 4.6 -4.3 17.9 -10.9 25 -12.4 2.9 -0.6 14.6 -1.1 26 -1.1 22.8 0.1 31 -1 42.8 -5.4 19.9 -7.6 35.4 -21 43.9 -38.1 5.9 -12 6.9 -16 7.3 -29 0.4 -10.8 0.1 -13.1 -2.5 -23 -2.5 -9.8 -3.1 -11 -5 -10.9 -1.7 0 -2.2 -0.5 -2.2 -2.3 0 -1.3 0.7 -2.6 1.5 -2.9 0.8 -0.4 1.5 -1.2 1.5 -2 0 -0.8 0.7 -1.4 1.5 -1.4 2.3 0 6.5 -3 6.5 -4.6 0 -0.8 0.7 -1.4 1.6 -1.4 0.8 0 2.2 -0.7 3 -1.5 0.9 -0.8 3.2 -1.5 5.3 -1.5 3.5 0 4.1 0.4 9.3 7.8 3 4.2 7 10.4 8.9 13.7 1.8 3.3 3.6 6.2 4 6.5 1.2 0.9 4.9 10 4.9 12.1 0 1 0.4 1.9 0.9 1.9 0.4 0 1.9 3.9 3.2 8.8 2 7.2 2.4 11 2.4 22.2 -0.1 14.6 -1 19.9 -5.8 32.4 -2.6 7 -11.9 22.5 -13.9 23.4 -0.5 0.2 -0.8 1 -0.8 1.8 0 0.8 -1.3 2.2 -2.8 3.1 -1.6 0.9 -3.3 2.6 -3.8 3.7 -0.5 1.1 -1.9 2.6 -3.2 3.2 -1.2 0.6 -3.7 3 -5.4 5.3 -1.8 2.2 -3.8 4.1 -4.4 4.1 -0.7 0 -1.4 0.7 -1.8 1.5 -0.3 0.8 -1.2 1.5 -2.1 1.5 -0.8 0 -1.5 0.5 -1.5 1 0 0.6 -0.7 1 -1.5 1 -0.8 0 -1.5 0.5 -1.5 1 0 0.6 -0.7 1 -1.5 1 -0.8 0 -1.5 0.5 -1.5 1 0 0.6 -0.7 1 -1.5 1 -0.8 0 -1.5 0.3 -1.5 0.8 0 0.4 -2.2 1.5 -5 2.5 -2.7 1 -5 2.2 -5 2.7 0 0.6 -1 1 -2.2 1 -1.2 0 -2.9 0.6 -3.7 1.3 -0.9 0.7 -3.8 1.9 -6.6 2.6 -2.7 0.6 -5.1 1.6 -5.3 2.2 -0.2 0.5 -1.9 0.9 -3.7 0.9 -1.8 0 -3.5 0.4 -3.7 1 -0.9 2.6 -38 5.9 -49.8 4.4z"/>
  <path d="M436.5 568.4 c-1.1 -0.2 -8.1 -1 -15.5 -1.9 -26.9 -3.3 -52.2 -11.1 -80.6 -25.1 -26.2 -12.8 -51.2 -30.6 -72.3 -51.3 l-8.9 -8.9 -2.8 2.9 c-1.5 1.6 -3.3 2.9 -4 2.9 -0.7 0 -2.5 1.6 -4 3.5 -1.4 1.9 -3 3.5 -3.5 3.5 -0.5 0 -2.2 1.4 -3.7 3 -1.6 1.7 -3.4 3 -4.1 3 -0.6 0 -1.1 0.5 -1.1 1 0 0.6 -0.7 1 -1.5 1 -0.8 0 -1.5 0.4 -1.5 0.9 0 0.5 -1 1.3 -2.2 1.7 -1.2 0.3 -2.8 1.3 -3.6 2 -0.7 0.8 -2.1 1.4 -3 1.4 -1 0 -2.5 0.9 -3.5 2 -0.9 1.1 -2.8 2 -4.1 2 -1.4 0 -3.1 0.6 -3.8 1.3 -0.7 0.8 -3 1.7 -5.1 2.1 -2 0.4 -3.7 1.1 -3.7 1.5 0 0.5 -2.3 1.1 -5.1 1.3 -2.8 0.3 -5.4 1 -5.8 1.6 -0.9 1.5 -16.9 3.2 -30.1 3.2 -10.9 0 -23.7 -1.5 -34.2 -3.9 -10.5 -2.4 -32.3 -12.9 -42.6 -20.5 -5.7 -4.1 -25.2 -24.4 -25.2 -26 0 -0.4 -0.5 -1.2 -1 -1.9 -4.1 -4.8 -5 -6.2 -5 -7.3 0 -0.7 -0.4 -1.4 -1 -1.6 -1.4 -0.4 -10 -19.8 -10 -22.5 0 -1.2 -0.4 -2.4 -0.9 -2.7 -1.6 -1 -3.1 -13.7 -2.8 -22.7 0.4 -9.4 1.5 -11.9 8.2 -17.8 8.6 -7.5 17.7 -9.1 27 -4.7 8.1 3.8 11.7 8.5 19.6 25.6 8.3 17.9 11.6 23.2 19.6 31.5 7.1 7.5 13.2 11.7 22.2 15.5 17.7 7.6 38.6 7.9 55 0.8 10.9 -4.6 22.8 -15.5 27.6 -25.1 3.7 -7.6 3.4 -12 -1.9 -22.5 -12.5 -24.9 -21.2 -53.4 -24.3 -79.7 -2.3 -19.2 -2.3 -52.6 0 -70.3 11.9 -91.5 82.2 -175.8 172.2 -206.9 52.1 -18 105.1 -20.6 155 -7.8 15.9 4.1 26.1 7.4 36 11.5 10.2 4.3 33.7 16.5 41.9 21.8 63.2 41 106.4 104.3 118.6 173.9 4.1 23.4 4.7 55.8 1.4 78.8 -2.3 16.3 -3.1 20.4 -6.8 33.5 -4.5 16.4 -9 27.8 -18.8 48 l-8.1 16.5 1.2 4.5 c2 7.5 9.8 22.2 14.3 27.1 5.7 6 10.4 9.4 18 12.8 10.6 4.7 15.4 5.6 28.3 5.5 13.4 0 18.9 -1.5 32 -8.3 16.6 -8.6 31.9 -28.9 39.5 -52.3 5.2 -16.1 16.3 -28 28.1 -30.2 5.7 -1 13.7 2.4 19.2 8.3 3.9 4.2 4.6 5.6 5.2 10.5 1.1 8.3 -1.1 28.2 -4 37.3 -1.4 4.3 -4.2 11.2 -6.3 15.3 -4 7.9 -11.2 19.3 -12.4 19.8 -0.5 0.2 -0.8 1 -0.8 1.7 0 0.8 -0.9 1.7 -2 2 -1.1 0.3 -2 1.2 -2 1.9 0 1.8 -11.5 13.6 -13.4 13.6 -0.9 0 -1.6 0.6 -1.6 1.4 0 0.8 -0.9 1.7 -1.9 2.1 -1.1 0.3 -2.2 1.2 -2.5 2 -0.3 0.8 -1.2 1.5 -2.1 1.5 -0.8 0 -1.5 0.5 -1.5 1 0 0.6 -0.7 1 -1.5 1 -0.8 0 -1.5 0.4 -1.5 0.9 0 0.5 -1 1.3 -2.2 1.7 -1.2 0.3 -3.1 1.5 -4.2 2.6 -1.1 1 -3.2 2.1 -4.6 2.4 -4.5 1 -8.2 2.7 -10 4.6 -1 1.1 -4.1 2.3 -7.5 2.8 -3.2 0.5 -6.8 1.6 -8 2.4 -5.7 3.7 -34.4 5.7 -53 3.6 -13.5 -1.6 -21.4 -4.1 -37.5 -12.1 -16.8 -8.3 -34.8 -23.4 -43.1 -35.9 -1.5 -2.2 -1.8 -2.3 -3.4 -1 -0.9 0.8 -2.1 2.4 -2.6 3.7 -0.5 1.3 -1.4 2.3 -2.1 2.3 -0.7 0 -3 2 -5.1 4.5 -2.1 2.5 -4.5 4.5 -5.2 4.5 -0.7 0 -2 1.1 -2.9 2.5 -0.9 1.4 -2.2 2.5 -2.9 2.5 -0.7 0 -1.8 0.9 -2.5 2 -0.7 1.1 -1.7 2 -2.3 2 -0.7 0 -2.1 1 -3.3 2.3 -3.5 3.5 -7.5 6.7 -8.6 6.7 -0.6 0 -1 0.5 -1 1 0 0.6 -0.8 1 -1.8 1 -1 0 -2.4 0.9 -3.2 2 -0.8 1.1 -2 2 -2.7 2 -0.7 0 -1.3 0.4 -1.3 0.9 0 0.5 -1.3 1.2 -3 1.6 -1.6 0.4 -3 1.1 -3 1.6 0 0.5 -0.7 0.9 -1.5 0.9 -0.9 0 -1.8 0.7 -2.1 1.5 -0.4 0.8 -1.2 1.5 -1.9 1.5 -0.8 0 -6.7 2.6 -13.2 5.9 -13.3 6.6 -26.7 12.3 -33 14.2 -2.4 0.7 -4.3 1.5 -4.3 1.9 0 0.4 -2.1 1 -4.7 1.3 -2.6 0.3 -4.9 1 -5.1 1.6 -0.2 0.6 -1.6 1.1 -3.1 1.1 -1.5 0 -3.1 0.4 -3.7 0.9 -1.4 1.4 -21.2 5 -36.4 6.6 -11.8 1.3 -38.7 1.8 -44.5 0.9z m19.2 -72 c5.4 -3.4 9.3 -11.7 11.2 -24.2 2.2 -13.9 -4.2 -30.2 -13.4 -34.6 -3.1 -1.5 -3.7 -1.5 -6.4 -0.2 -6.3 3.3 -10.6 11 -13.1 23.7 -1.1 5.7 -1.1 7.5 0.5 14.5 2.3 10.5 5.6 16.7 10.7 20.4 4.3 3.1 6.1 3.2 10.5 0.4z m138.3 -67.9 c9.7 -1.9 12.2 -2.6 20 -6.2 19.3 -8.8 30.9 -19.6 44.2 -41.3 2.5 -4.1 7.4 -16.9 9.3 -24.5 2.7 -10.7 2.6 -28.6 -0.4 -39.5 -8.8 -32.9 -28.4 -55.1 -59.2 -67 -15.2 -5.9 -30.3 -7.4 -44.7 -4.4 -32.2 6.6 -55.3 24.4 -69.2 53.6 -6.6 13.7 -8.4 22 -8.4 38.3 0 13.6 0.1 14.3 3.8 25.2 6.4 18.8 18.9 37.1 32.2 47.1 9.2 7 24.8 14.6 35.9 17.6 10.8 2.9 25.1 3.4 36.5 1.1z m-276.1 -38 c15.3 -1.7 34.4 -11.2 48.3 -24.1 16.5 -15.3 28.8 -43 28.8 -64.9 0 -12 -4.9 -29.1 -12.3 -42.5 -6.2 -11.3 -19.6 -25.5 -29.2 -31 -14.5 -8.2 -28.6 -13 -42.2 -14.4 -21.1 -2.2 -47.7 8.2 -65.3 25.4 -16.3 15.9 -24.5 32.8 -27.1 55.3 -1.4 13.1 -0.2 23 4.6 36.1 12.4 34.4 39.5 56.5 74 60.5 6.9 0.8 9.6 0.8 20.4 -0.4z"/>
 </g>
 <g fill="#ac1b5b">
  <path d="M325.3 810 c-20.9 -2.3 -39.9 -12.8 -46.2 -25.5 -2.9 -5.7 -3.8 -14.9 -2.1 -20.1 l1.3 -3.9 1.4 4 c1.9 5.6 6.6 10 15.5 14.5 4.3 2.2 7.8 3.7 7.8 3.3 0 -0.3 0.6 -0.1 1.3 0.4 4 3.3 29.4 6.7 32.1 4.3 1 -0.8 2.9 -1 5.6 -0.5 2.8 0.5 4 0.3 4 -0.5 0 -0.7 0.8 -1 2 -0.7 1.1 0.3 2 0.1 2 -0.5 0 -0.6 0.9 -0.8 2 -0.5 1.1 0.3 2 0.2 2 -0.2 0 -0.9 11 -4.4 11.7 -3.7 0.8 0.7 6.3 -2.3 6.3 -3.4 0 -0.6 2 -1.5 4.4 -2.2 2.5 -0.6 4.3 -1.6 4 -2 -0.3 -0.5 0.8 -1.1 2.5 -1.4 1.7 -0.4 2.8 -1 2.5 -1.5 -0.3 -0.5 0.5 -0.9 1.7 -0.9 1.2 0 1.9 -0.3 1.5 -0.7 -0.3 -0.4 0.8 -1.2 2.5 -1.7 1.7 -0.6 3 -1.5 2.9 -2.1 0 -0.5 0.9 -1.3 2.2 -1.6 1.3 -0.3 2.2 -1.1 2.1 -1.6 -0.1 -0.6 0.8 -1.4 2 -1.7 1.2 -0.3 3.3 -2.2 4.6 -4.1 1.3 -2 3.8 -4.6 5.5 -5.8 3.4 -2.3 6.2 -5.7 5.8 -6.9 -0.1 -0.5 0.5 -0.8 1.3 -0.8 1.3 0 1.9 -1.2 1.6 -3.2 0 -0.4 0.9 -1 2 -1.3 1.2 -0.4 1.8 -1.3 1.5 -2 -0.2 -0.7 0.2 -1.6 1 -1.9 0.9 -0.3 1.2 -1 0.9 -1.6 -0.3 -0.5 0.1 -1 1 -1 0.9 0 1.5 -0.5 1.3 -1.2 -0.2 -0.6 0.4 -2 1.4 -3 1 -1 1.6 -2.3 1.3 -2.8 -0.4 -0.6 -0.1 -1 0.5 -1 0.6 0 0.8 -0.4 0.5 -1 -0.3 -0.5 -0.1 -1 0.5 -1 0.6 0 0.8 -0.4 0.5 -1 -0.3 -0.5 -0.1 -1 0.5 -1 0.6 0 0.8 -0.4 0.5 -1 -0.3 -0.5 -0.1 -1 0.5 -1 0.6 0 0.8 -0.4 0.5 -1 -0.3 -0.5 -0.1 -1 0.5 -1 0.7 0 1 -0.6 0.8 -1.2 -0.3 -0.7 0.2 -1.9 0.9 -2.7 0.8 -0.7 1.2 -2 0.9 -2.7 -0.3 -0.8 -0.1 -1.4 0.5 -1.4 0.6 0 0.9 -0.7 0.5 -1.5 -0.3 -0.8 0 -1.5 0.5 -1.5 0.6 0 0.9 -0.9 0.6 -2 -0.3 -1.1 -0.1 -2 0.5 -2 0.6 0 0.7 -1.1 0.4 -2.5 -0.4 -1.6 -0.2 -2.5 0.5 -2.5 0.7 0 0.9 -0.9 0.5 -2.5 -0.4 -1.6 -0.2 -2.5 0.5 -2.5 0.8 0 0.9 -3.7 0.4 -13.2 -0.3 -7.3 -0.6 -14.9 -0.6 -16.8 0 -1.9 -0.4 -4 -1 -4.6 -0.5 -0.6 -0.7 -1.9 -0.3 -2.8 0.3 -0.9 0.1 -1.6 -0.5 -1.6 -0.6 0 -0.8 -0.7 -0.5 -1.5 0.4 -0.8 0.1 -1.5 -0.6 -1.5 -0.7 0 -1 -0.7 -0.6 -1.5 0.3 -0.8 0.1 -1.5 -0.4 -1.5 -0.5 0 -0.7 -0.7 -0.4 -1.5 0.4 -0.8 0.1 -1.5 -0.6 -1.5 -0.6 0 -0.8 -0.5 -0.4 -1.1 0.3 -0.6 0.1 -1.5 -0.5 -1.9 -0.7 -0.4 -1.3 -1.3 -1.5 -2.1 -0.1 -0.8 -0.8 -2.4 -1.4 -3.7 -0.7 -1.2 -1 -2.2 -0.7 -2.2 0.4 0 -0.1 -0.7 -0.9 -1.6 -0.9 -0.8 -1.6 -2.1 -1.6 -2.9 0 -0.7 -0.3 -1.5 -0.7 -1.7 -0.9 -0.3 -5.3 -6.4 -5.3 -7.3 0 -2.5 -22.2 -24.2 -30.5 -29.6 -6.8 -4.5 -14.4 -8.7 -19.5 -10.8 -7 -2.8 -25 -4.9 -25 -2.9 0 0.5 -0.4 0.7 -1 0.3 -1.3 -0.8 -6.1 0.5 -5.4 1.6 0.3 0.5 -0.1 0.9 -0.9 0.9 -1.9 0 -10.4 9.3 -9.9 10.8 0.2 0.7 0 1.2 -0.5 1.2 -1 0 -1 9.1 0.1 10.8 0.4 0.7 0.4 1.2 0.1 1.2 -0.4 0 0.1 0.7 0.9 1.6 0.9 0.8 1.6 2.1 1.6 2.7 0 0.7 2 3.4 4.5 6.1 l4.5 4.8 -3.1 7.7 c-6.1 15.3 -17.6 33.5 -28.7 45.3 -22.5 23.9 -49.9 38.9 -83.8 46 -9.5 2 -13.8 2.3 -33.4 2.2 -21.2 0 -23.1 -0.1 -33 -2.7 -20.3 -5.2 -37 -15.9 -43.4 -27.8 -4.9 -9 -4.7 -22.2 0.5 -27.7 1.9 -2.2 4.6 -3.1 3.4 -1.3 -0.3 0.5 -0.1 1.2 0.4 1.6 0.6 0.3 0.8 1.2 0.4 2 -0.3 0.8 -0.1 1.5 0.4 1.5 0.5 0 1.5 1.7 2.2 3.8 1.9 5 11.3 14 18.6 17.7 3.3 1.6 6.3 3.1 6.8 3.1 0.4 0.1 0.9 0.3 1.2 0.4 0.3 0.1 0.8 0.3 1.3 0.5 0.4 0.1 1.4 0.5 2.2 0.9 0.9 0.3 3.4 0.9 5.5 1.1 5 0.6 6.6 0.9 8.8 1.9 1 0.5 3.1 0.6 4.7 0.3 1.6 -0.4 3.2 -0.2 3.5 0.3 0.8 1.3 16.2 1.3 17 0 0.4 -0.6 2.1 -0.8 4.1 -0.4 2.1 0.4 4 0.2 4.9 -0.6 0.8 -0.7 2.6 -1 4 -0.8 1.4 0.3 2.5 0.1 2.5 -0.5 0 -0.5 1.1 -0.7 2.5 -0.5 1.4 0.3 2.5 0.1 2.5 -0.5 0 -0.5 0.9 -0.7 2 -0.4 1 0.3 2 0.1 2.2 -0.4 0.2 -0.5 1.7 -1.1 3.3 -1.2 1.7 -0.1 3.2 -0.5 3.5 -0.9 0.3 -0.4 2.8 -1.3 5.5 -1.9 2.8 -0.7 5.7 -1.9 6.6 -2.6 0.8 -0.7 2.5 -1.3 3.7 -1.3 1.2 0 2.2 -0.4 2.2 -1 0 -0.5 2.2 -1.7 4.9 -2.7 2.7 -0.9 4.7 -2.1 4.5 -2.5 -0.3 -0.4 0.4 -0.8 1.6 -0.8 1.2 0 1.8 -0.4 1.5 -1 -0.3 -0.5 0.3 -1 1.5 -1 1.2 0 1.8 -0.4 1.5 -1 -0.3 -0.5 0.3 -1 1.5 -1 1.2 0 1.9 -0.4 1.5 -0.9 -0.3 -0.5 0.5 -1.1 1.7 -1.3 1.3 -0.2 2.2 -0.9 2.1 -1.6 -0.2 -0.6 0.5 -1.2 1.5 -1.2 1 0 3.3 -2 5.2 -4.5 1.9 -2.5 3.9 -4.5 4.5 -4.5 1.4 0 4.4 -3.1 4.2 -4.3 -0.1 -0.4 1.3 -1.6 3.1 -2.7 2.2 -1.3 3.2 -2.6 2.8 -3.5 -0.3 -0.9 0.1 -1.5 0.9 -1.5 0.8 0 1.5 -0.4 1.5 -1 0 -2 0.3 -2.5 2.2 -3.8 1 -0.7 1.6 -1.7 1.3 -2.2 -0.3 -0.4 0.2 -1.1 1.1 -1.4 0.8 -0.3 1.2 -1 0.9 -1.6 -0.3 -0.5 -0.1 -1 0.5 -1 0.6 0 0.9 -0.4 0.6 -0.9 -0.3 -0.5 0.1 -1.1 0.9 -1.5 1.7 -0.6 4.7 -7.4 3.9 -8.7 -0.3 -0.5 0 -0.9 0.6 -0.9 0.6 0 0.8 -0.4 0.5 -1 -0.3 -0.6 -0.1 -1 0.5 -1 0.7 0 1 -0.6 0.7 -1.4 -0.3 -0.8 -0.1 -1.6 0.5 -1.8 0.6 -0.2 1.1 -1.8 1.2 -3.6 0 -1.8 0.5 -3.2 1 -3.2 0.4 0 0.6 -0.9 0.3 -2 -0.3 -1.1 0 -2 0.5 -2 0.7 0 0.9 -1.6 0.5 -4 -0.3 -2.2 -0.1 -4 0.4 -4 1.2 0 1.1 -13.7 -0.1 -14.5 -0.6 -0.3 -0.7 -1.7 -0.4 -3 0.3 -1.2 0.1 -2.6 -0.5 -2.9 -0.5 -0.4 -0.8 -1.3 -0.5 -2 0.3 -0.8 0 -1.7 -0.5 -2.1 -0.6 -0.3 -0.9 -1 -0.6 -1.5 0.3 -0.5 0.1 -1.1 -0.4 -1.5 -0.6 -0.3 -0.8 -1.2 -0.4 -2 0.3 -0.8 0 -1.5 -0.7 -1.5 -0.7 0 -1 -0.6 -0.7 -1.4 0.3 -0.8 0.1 -1.6 -0.4 -1.8 -0.5 -0.2 -1.1 -1.3 -1.2 -2.6 0 -1.2 -0.5 -2.2 -1 -2.2 -0.4 0 -0.6 -0.4 -0.2 -0.9 0.3 -0.5 0.1 -1.2 -0.5 -1.6 -0.6 -0.4 -0.8 -1.1 -0.5 -1.6 0.4 -0.5 0.1 -0.9 -0.5 -0.9 -0.6 0 -0.8 -0.4 -0.5 -1 0.3 -0.5 0.1 -1 -0.5 -1 -0.6 0 -0.9 -0.4 -0.6 -0.9 0.4 -0.5 0.3 -1.1 -0.2 -1.3 -0.4 -0.1 -2.3 -3 -4.1 -6.3 -4 -7.2 -14.1 -21.5 -15.2 -21.5 -0.4 0 -1.4 0.7 -2.3 1.5 -0.8 0.8 -2.2 1.5 -3 1.5 -0.9 0 -1.6 0.6 -1.6 1.4 0 1.6 -4.2 4.6 -6.5 4.6 -0.8 0 -1.5 0.6 -1.5 1.3 0 1.7 -14.4 10.3 -23.5 14 -21.5 8.7 -41.2 12.2 -65 11.4 -32 -1 -53 -7.6 -78.5 -24.4 -33.5 -22.1 -54.5 -56.1 -59 -95.3 -1.2 -10.9 0.2 -21.2 4.1 -29.7 l2.3 -4.8 0.8 4.5 c0.5 2.5 0.8 7.2 0.8 10.5 -0.1 7.3 0.2 10.6 1.4 12.3 0.4 0.7 0.6 1.6 0.3 1.8 -0.3 0.3 0.1 1.7 0.8 3.1 0.8 1.5 1.2 3 0.9 3.5 -0.3 0.4 0 0.8 0.6 0.8 0.7 0 1 0.7 0.6 1.5 -0.3 0.8 -0.1 1.5 0.5 1.5 0.6 0 0.7 0.4 0.4 1 -0.3 0.5 -0.1 1 0.5 1 0.6 0 0.9 0.4 0.5 0.9 -0.3 0.5 -0.1 1.2 0.5 1.6 0.6 0.4 0.8 1.1 0.5 1.6 -0.4 0.5 -0.1 0.9 0.5 0.9 0.6 0 0.8 0.4 0.5 1 -0.3 0.5 -0.1 1 0.4 1 0.6 0 1 0.3 0.9 0.8 -0.4 1.4 1.3 5.2 2.3 5.2 0.6 0 0.7 0.4 0.4 1 -0.3 0.5 -0.1 1 0.4 1 0.6 0 1.1 0.7 1.1 1.5 0 0.8 0.5 1.5 1.2 1.5 0.6 0 0.9 0.3 0.5 0.6 -0.3 0.4 -0.1 1.2 0.6 2 2.7 3 3.7 4.3 3.7 5 0 2 20 22.3 26.5 26.8 8.9 6.3 28.3 16.2 33.8 17.2 0.4 0.1 0.9 0.3 1.2 0.4 0.3 0.1 1 0.4 1.5 0.5 0.6 0.1 1.1 0.3 1.3 0.5 0.1 0.1 1.1 0.3 2.2 0.5 1.1 0.2 3.1 0.6 4.5 1 1.4 0.4 3.9 0.9 5.5 1.1 1.7 0.2 4.8 0.7 7 1.1 4.1 0.6 25.3 0.8 32.5 0.2 2.2 -0.2 4 -0.8 4 -1.3 0 -0.4 1.4 -0.6 3 -0.2 1.7 0.3 3 0.2 3 -0.3 0 -1.1 8.8 -3.3 10.1 -2.6 0.5 0.4 0.9 0.2 0.9 -0.4 0 -0.6 1.7 -1.3 3.7 -1.7 2.1 -0.4 4.4 -1.3 5.1 -2.1 0.7 -0.7 2.2 -1.3 3.2 -1.3 2.7 0 5.1 -1.1 4.5 -2.1 -0.3 -0.4 1.3 -1.3 3.5 -1.9 2.2 -0.6 3.8 -1.5 3.5 -1.9 -0.2 -0.5 0.9 -1.1 2.6 -1.5 1.7 -0.3 2.8 -1 2.4 -1.6 -0.3 -0.5 0.3 -1 1.4 -1 1.2 0 2.1 -0.4 2.1 -1 0 -0.5 0.5 -1 1.1 -1 0.7 0 2.5 -1.3 4.1 -3 1.5 -1.6 3.2 -3 3.7 -3 0.5 0 2.1 -1.6 3.5 -3.5 1.5 -1.9 3.3 -3.5 3.9 -3.5 1.7 0 8.9 -7.5 8.1 -8.3 -0.4 -0.4 0.1 -0.7 1.2 -0.7 1 0.1 3.5 2.1 5.4 4.6 7.4 9.5 33.2 31.1 51.6 43.3 9 6 41.1 23 44.8 23.8 0.6 0.1 6.3 2.1 12.6 4.3 6.3 2.3 12.2 4.3 13 4.5 0.8 0.2 1.5 0.4 1.5 0.5 0 0.1 0.7 0.3 1.5 0.5 2.7 0.7 5.9 1.5 8.3 2.1 1.2 0.3 3.1 0.7 4.2 0.9 1.1 0.2 3.1 0.7 4.5 1 1.4 0.4 3.6 0.8 5 1 1.4 0.2 4.5 0.7 7 1 14.9 2.1 21.6 2.7 36.3 3.2 9.9 0.3 13.7 0.1 13.7 -0.7 0 -0.8 1.6 -0.9 5.5 -0.5 4.1 0.6 5.5 0.4 5.5 -0.5 0 -0.9 1.2 -1.1 4.5 -0.7 3 0.5 4.5 0.3 4.5 -0.4 0 -0.7 1.1 -0.9 3 -0.5 1.7 0.3 3 0.1 3 -0.4 0 -0.6 1.5 -1 3.3 -1 5.2 0.1 7.7 -0.4 7.7 -1.3 0 -0.5 1.1 -0.6 2.5 -0.3 1.5 0.4 2.5 0.2 2.5 -0.4 0 -0.6 0.8 -1 1.8 -0.9 0.9 0.2 2.7 -0.3 4 -1 1.3 -0.7 3 -1 3.8 -0.7 0.8 0.3 1.4 0.2 1.4 -0.3 0 -1.1 7.8 -3.3 9 -2.6 0.6 0.3 1 0.2 1 -0.3 0 -0.5 1.9 -1.4 4.3 -2.1 6.3 -1.9 19.7 -7.6 33 -14.2 6.5 -3.3 12.5 -5.9 13.3 -5.9 0.8 0 1.2 -0.4 0.9 -1 -0.3 -0.5 0.6 -1.2 2 -1.6 1.4 -0.3 2.5 -1 2.5 -1.4 0 -0.5 1.4 -1.1 3 -1.5 1.7 -0.4 2.8 -1.1 2.4 -1.6 -0.3 -0.5 0.4 -0.9 1.6 -0.9 1.2 0 1.8 -0.4 1.5 -1 -0.3 -0.5 0.1 -1 0.9 -1 0.9 0 1.6 -0.4 1.6 -1 0 -0.5 0.9 -1 2.1 -1 1.1 0 1.7 -0.4 1.4 -1 -0.3 -0.5 0.3 -1 1.5 -1 1.2 0 1.8 -0.4 1.5 -1 -0.3 -0.5 0 -1 0.8 -1 0.8 0 3 -1.6 5 -3.5 2 -1.9 4.1 -3.5 4.6 -3.5 0.6 0 1.6 -0.9 2.3 -2 0.7 -1.1 1.8 -2 2.5 -2 0.7 0 2 -1.1 2.9 -2.5 0.9 -1.4 2.2 -2.5 2.9 -2.5 0.7 0 2.9 -1.9 5 -4.2 2 -2.4 4.4 -4.5 5.2 -4.8 0.8 -0.3 1.3 -0.9 1.1 -1.2 -0.4 -0.9 7.3 -8.8 8.7 -8.8 0.5 0 2.6 2.3 4.5 5.1 4.9 7.3 18.1 20.1 26.9 26.3 6.6 4.6 21.1 12.7 22.6 12.6 0.3 0 1.9 0.7 3.5 1.5 1.6 0.8 3.1 1.5 3.2 1.4 0.2 0 1.7 0.5 3.3 1.1 1.7 0.7 3.9 1.4 5 1.6 2.9 0.7 3.8 1 5.7 1.8 0.9 0.4 2.2 0.5 2.8 0.1 0.6 -0.4 1.6 -0.2 2.3 0.3 0.7 0.6 2.3 1 3.7 1.1 1.4 0 8 0.3 14.7 0.7 8.6 0.4 12.7 0.3 13.7 -0.5 0.7 -0.6 2.6 -0.8 4.5 -0.5 2.1 0.5 3.1 0.3 3.1 -0.6 0 -0.9 0.9 -1.1 3 -0.6 1.9 0.3 3 0.1 3 -0.5 0 -0.6 0.9 -0.9 2 -0.6 1 0.3 3.7 -0.4 5.9 -1.5 2.2 -1.1 6 -2.2 8.3 -2.4 2.4 -0.2 4.8 -1 5.3 -1.7 1.3 -1.9 7 -4.7 9.2 -4.7 2.3 0 7.5 -3.4 6.6 -4.3 -0.3 -0.4 0.3 -0.7 1.5 -0.7 1.1 0 2.7 -0.7 3.6 -1.5 0.8 -0.8 2 -1.5 2.6 -1.5 0.6 0 0.9 -0.4 0.5 -0.9 -0.3 -0.5 0.5 -1.1 1.7 -1.3 1.3 -0.2 2.2 -0.9 2.1 -1.5 -0.1 -0.6 0.9 -1.4 2.2 -1.7 1.4 -0.4 2.5 -1.3 2.5 -2.1 0 -0.8 0.7 -1.5 1.6 -1.5 1.9 0 13.5 -11.9 12.8 -13.2 -0.3 -0.4 0.7 -1.3 2.1 -2 1.5 -0.7 2.4 -1.7 2.1 -2.5 -0.3 -0.7 0.1 -1.3 0.9 -1.3 0.8 0 1.5 -0.4 1.5 -1 0 -0.5 0 -1.2 0 -1.5 0 -0.2 1.2 -1.7 2.5 -3.1 1.4 -1.5 2.3 -2.9 2 -3.2 -0.3 -0.3 0.4 -1.2 1.6 -2 1.1 -0.8 1.8 -2 1.5 -2.8 -0.3 -0.8 -0.1 -1.4 0.5 -1.4 0.6 0 0.7 -0.5 0.4 -1 -0.3 -0.6 -0.1 -1 0.5 -1 0.6 0 0.9 -0.4 0.6 -0.9 -0.3 -0.5 0.1 -1.2 1 -1.5 0.9 -0.4 1.4 -1.3 1 -2.1 -0.3 -0.8 -0.1 -1.5 0.5 -1.5 0.6 0 0.7 -0.4 0.4 -1 -0.3 -0.5 -0.1 -1 0.5 -1 1.1 0 3 -4.1 3.3 -7.4 0.1 -1.2 0.6 -2.4 1.1 -2.7 0.5 -0.4 0.9 -2.1 1 -3.8 0 -1.7 0.5 -3.1 1 -3.1 0.4 0 0.5 -1.1 0.2 -2.4 -0.3 -1.4 -0.1 -2.8 0.5 -3.1 0.5 -0.4 0.9 -1.7 0.8 -2.8 -0.1 -1.2 0.1 -4.9 0.5 -8.2 0.4 -3.9 0.2 -8.5 -0.8 -13.2 -1.5 -7.8 -0.9 -9 2.2 -4.5 15.8 22.3 10.3 64.1 -12.9 99.3 -8 12.2 -25.2 29.3 -37.8 37.8 -16.3 10.9 -32.7 17.8 -54.1 22.8 -10.8 2.6 -45 2.6 -57 0 -16.7 -3.6 -37.1 -11.4 -47.6 -18.3 -2.8 -1.9 -5.7 -3.4 -6.4 -3.4 -1.4 0 -6.6 -3.9 -15.6 -11.7 l-6.1 -5.2 -1.9 3.4 c-1 1.9 -2.5 3.5 -3.2 3.5 -0.7 0 -1 0.5 -0.7 1 0.3 0.6 0 1.3 -0.8 1.6 -0.7 0.2 -1.4 1 -1.4 1.7 0 1.8 -6.3 11.7 -7.4 11.7 -0.6 0 -0.8 0.4 -0.4 0.9 0.6 1.1 -2.5 8.1 -3.7 8.1 -0.4 0 -0.5 0.7 -0.2 1.5 0.4 0.8 0.1 1.5 -0.6 1.5 -0.6 0 -0.9 0.4 -0.6 0.8 0.6 1.1 -1.4 9.2 -2.4 9.2 -0.4 0 -0.5 1.1 -0.2 2.5 0.2 1.4 0 2.5 -0.4 2.5 -2.1 0 -2 26.5 0.1 31.3 0.4 1 0.5 2.1 0.1 2.4 -0.3 0.3 -0.1 1.1 0.4 1.8 0.5 0.7 1.1 2.5 1.3 4.1 0.2 1.6 0.9 3.9 1.5 5.1 0.7 1.2 1.4 3 1.5 4 0.6 2.8 4.8 11.6 6.3 13.1 0.8 0.7 1.4 1.9 1.4 2.6 0 0.7 3.5 5.5 7.8 10.7 11.5 13.9 22.7 22.9 41.2 33.1 6 3.3 11 5.9 11.2 5.7 0.2 -0.1 1.4 0.4 2.8 1.1 1.4 0.8 2.7 1.5 3 1.5 3 0.7 6.7 1.9 7.5 2.4 1 0.5 1.3 0.6 5 1.5 1.1 0.2 2 0.5 2 0.6 0 0.1 0.7 0.3 1.5 0.5 0.8 0.2 2.6 0.7 4 1 9.2 2.4 40 4.1 40 2.2 0 -0.5 1.1 -0.7 2.5 -0.5 1.4 0.3 2.5 0.1 2.5 -0.5 0 -0.5 1.1 -0.7 2.5 -0.5 1.4 0.3 2.5 0.1 2.5 -0.5 0 -0.5 0.9 -0.7 2 -0.4 1.1 0.3 2 0.1 2 -0.5 0 -0.6 0.9 -0.8 2 -0.5 1.1 0.3 2.6 -0.1 3.4 -0.8 0.7 -0.8 2.7 -1.7 4.2 -2 5.4 -1.2 6.6 -1.7 6 -2.3 -0.4 -0.3 0.8 -1.1 2.6 -1.7 1.8 -0.6 3.2 -1.6 3.1 -2.3 -0.2 -0.7 0.3 -1.2 1.1 -1.2 1.8 0 4.8 -2.9 4.1 -4 -0.3 -0.4 0.7 -1.5 2.1 -2.5 1.4 -0.9 2.3 -2.2 2.1 -2.8 -0.2 -0.7 0.3 -1.8 1 -2.6 0.8 -0.7 1.2 -1.8 1 -2.5 -0.2 -0.6 0.3 -1.7 1.1 -2.5 0.7 -0.8 1.2 -2.5 0.9 -3.8 -0.8 -4 2.4 -2.3 5.8 3.1 2.7 4.4 3 5.8 3 12.5 -0.1 8.3 -1.2 11.3 -7.3 19.1 -12.7 16.2 -37.1 25 -69 25 -47.6 0 -98.9 -23.4 -126.1 -57.5 -15.5 -19.3 -23.3 -35.8 -29.6 -62.5 -2 -8.2 -2.9 -37 -1.2 -38.1 0.5 -0.4 0.6 -1.6 0.3 -2.7 -0.7 -2.1 -0.8 -2.1 -4.4 -0.4 -2 0.9 -4.6 2.5 -5.6 3.5 -1.1 0.9 -2.3 1.7 -2.8 1.7 -0.9 0 -3.5 2 -8.7 6.8 -1.9 1.7 -3.8 3.2 -4.2 3.2 -1.4 0 -9.9 8.3 -9.4 9.1 0.3 0.4 -1.2 2.6 -3.2 4.8 -2.1 2.2 -3.9 4.6 -4.1 5.3 -0.2 0.7 -1.1 1.9 -2 2.6 -0.9 0.7 -1.6 1.5 -1.4 1.8 0.4 0.6 -8 17.8 -8.9 18.2 -0.4 0.2 -0.5 1 -0.2 1.8 0.3 0.8 0 1.4 -0.6 1.4 -0.6 0 -0.8 0.7 -0.5 1.5 0.4 0.8 0.1 1.5 -0.6 1.5 -0.6 0 -0.9 0.4 -0.5 0.9 0.5 0.9 -0.7 7.5 -2.2 12.1 -0.6 2.1 -0.4 26.6 0.3 31.5 0.3 2.2 0.7 5.1 0.9 6.5 0.2 1.4 0.4 2.7 0.6 3 0.1 0.3 0.3 1 0.3 1.5 0.1 0.6 0.7 2 1.4 3.1 0.6 1.2 0.8 2.4 0.5 2.8 -0.3 0.3 -0.1 0.6 0.5 0.6 0.9 0 1.8 2.6 2.5 6.7 0 0.5 0.5 1.3 0.9 1.8 0.5 0.6 3 4.7 5.6 9.3 8.3 14.6 23.4 29 40.1 38.1 4.1 2.3 7.7 4.1 8.1 4.1 0.4 0 2.5 0.8 4.6 1.7 2.2 0.9 4.2 1.7 4.6 1.7 0.3 0.1 0.9 0.4 1.3 0.8 0.4 0.4 1.3 0.4 2 0.2 0.7 -0.3 1.6 0 2 0.5 0.3 0.6 1.1 0.9 1.6 0.5 0.5 -0.3 1.5 -0.1 2.2 0.4 0.7 0.5 1.9 1 2.7 1 0.8 0.1 2.9 0.4 4.5 0.7 9.9 1.9 30.5 2 30.5 0.2 0 -0.5 1.1 -0.6 2.5 -0.3 1.4 0.4 2.5 0.3 2.5 -0.2 0 -0.5 3.1 -1.9 7 -3.1 3.8 -1.3 6.7 -2.7 6.4 -3.2 -0.3 -0.5 0.1 -0.9 0.9 -0.9 1.9 0 5.5 -3 5.9 -4.9 0.2 -0.7 1.3 -2.5 2.6 -3.9 1.2 -1.4 2.1 -3 1.9 -3.6 -0.5 -1.4 2 -3.9 3.1 -3.2 0.5 0.3 2.1 2.3 3.7 4.6 5.8 8.4 3 19.5 -7.5 30 -17.9 18 -56.9 22.1 -91.8 9.8 -27.3 -9.6 -50.4 -26.7 -67.9 -50.5 -9.4 -12.6 -21.3 -37.9 -21.3 -45.2 0 -3 -1.6 -5.9 -2.6 -4.9 -0.4 0.4 -1.4 4.9 -2.4 10 -3.2 17 -6.9 27.9 -15.6 44.8 -18.6 36.4 -54.5 63.8 -93.9 71.8 -11.9 2.4 -27.2 3.4 -37.2 2.2z"/>
 </g>
 <g fill="#fdfdfd">
  <path d="M554.5 430.4 c-11.1 -3 -26.7 -10.6 -35.9 -17.6 -13.3 -10 -25.8 -28.3 -32.2 -47.1 l-3.9 -11.2 0.1 -17 c0 -14.4 0.3 -18.2 2.2 -25 2.8 -10.2 8.7 -22.6 15.3 -32.1 23.6 -34.1 71.5 -48.6 110.8 -33.4 30.7 11.9 50.3 34 59.3 67 3 11.2 3.2 34.5 0.3 45.5 -1.9 7.6 -6.8 20.5 -9.3 24.5 -10.6 17.2 -18.6 26 -30.7 33.8 -17.5 11.3 -31.6 15.3 -54 15.1 -10.4 0 -14.8 -0.5 -22 -2.5z m28.4 -49.4 c15.1 -2.5 29.7 -13.6 36.4 -27.7 2.9 -6.3 3.2 -7.6 3.2 -16.8 0 -9.3 -0.3 -10.5 -3.3 -16.5 -9.7 -19.1 -33.1 -31.6 -48.4 -25.8 -1.9 0.7 -2.9 2 -3.7 5.3 -1 3.9 -10.1 16.5 -11.9 16.5 -0.4 0 -1.9 1.1 -3.4 2.4 -3.5 3.3 -9.2 5.6 -13.9 5.6 -3.4 0 -4.1 0.4 -5 2.8 -1.7 4.3 -1.4 17.1 0.4 22.5 5.9 16.9 24.4 31.4 41.7 32.6 0.8 0 4.4 -0.4 7.9 -0.9z"/>
  <path d="M294.5 394 c-29 -3.5 -53.3 -20 -67.8 -46.2 -4.9 -8.9 -9.6 -23.3 -10.9 -33.4 -2.2 -17 1.1 -37.6 8.4 -52.9 7.4 -15.5 21.7 -30.8 36.9 -39.3 30.3 -16.9 62.2 -16 95.4 2.8 9.6 5.5 23 19.7 29.2 31 10.9 19.9 14.7 42 10.8 62.5 -3.6 18.8 -14.4 39 -27.3 50.9 -21.1 19.5 -46.6 27.9 -74.7 24.6z m25 -49.1 c15.8 -5.9 27.9 -20 31 -36.2 1.2 -6.4 1.2 -8.2 0 -13.6 -5.8 -24.6 -30.1 -41.6 -52.7 -36.8 l-3.8 0.8 0 6 0 6 -15 14.7 c-12.9 12.7 -15.1 15.3 -16.1 19.2 -1.4 5.7 0.7 13.1 6.1 21 12.7 18.5 32.1 25.7 50.5 18.9z"/>
 </g>
 <g fill="#010101">
  <path d="M442.2 499 c-5 -3.6 -8.4 -9.9 -10.6 -19.7 -2.1 -9.5 -2 -16.1 0.4 -25.8 5.1 -20.4 20.3 -27 31 -13.5 8.1 10.2 9.8 29.1 4.3 46.7 -4.2 13.5 -15.7 19.1 -25.1 12.3z"/>
  <path d="M566 383.9 c-14.8 -2.9 -30.4 -16.7 -35.7 -31.6 -2 -5.6 -2.3 -24 -0.4 -28.5 0.9 -2.4 1.6 -2.8 5 -2.8 4.7 0 10.4 -2.3 13.9 -5.6 1.5 -1.3 3 -2.4 3.4 -2.4 1.8 0 10.9 -12.6 11.9 -16.5 1.2 -4.9 3 -6 11 -7 17.4 -2.2 38.3 10 47 27.4 3.3 6.5 3.4 6.9 3.4 19.6 0 12.6 -0.1 13.2 -3.2 19.8 -4.4 9.3 -14.8 19.7 -23.6 23.7 -10 4.5 -22.1 6 -32.7 3.9z"/>
  <path d="M296.2 349.9 c-7.2 -1.2 -16.8 -6.1 -22 -11.2 -13.1 -12.6 -18.5 -29 -13.1 -39.8 1 -2 8.1 -9.7 15.8 -17.1 l14.1 -13.6 0 -6 0 -6.1 3.8 -0.8 c2 -0.4 8 -0.8 13.2 -0.7 11.2 0.1 18.9 2.7 27.2 9.4 19 15.1 24.7 39 14.1 60 -5.1 10.3 -15.7 19.7 -27 24 -6.2 2.3 -18.7 3.3 -26.1 1.9z"/>
 </g>
</svg>